<svg width="2133" height="534" viewBox="0 0 2133 534" fill="none" xmlns="http://www.w3.org/2000/svg">
<path d="M1833.81 401.643C1824.16 401.643 1815.4 399.519 1807.53 395.271C1799.74 391.022 1793.59 385.181 1789.07 377.746C1784.65 370.312 1782.43 362.036 1782.43 352.92C1782.43 343.715 1784.65 335.44 1789.07 328.094C1793.59 320.659 1799.74 314.818 1807.53 310.569C1815.4 306.321 1824.16 304.197 1833.81 304.197C1843.46 304.197 1852.18 306.321 1859.97 310.569C1867.84 314.818 1873.99 320.659 1878.42 328.094C1882.93 335.44 1885.19 343.715 1885.19 352.92C1885.19 362.036 1882.93 370.312 1878.42 377.746C1873.99 385.181 1867.84 391.022 1859.97 395.271C1852.18 399.519 1843.46 401.643 1833.81 401.643ZM1833.81 377.879C1841.07 377.879 1846.91 375.578 1851.34 370.976C1855.76 366.373 1857.97 360.355 1857.97 352.92C1857.97 345.485 1855.76 339.467 1851.34 334.865C1846.91 330.262 1841.07 327.961 1833.81 327.961C1826.55 327.961 1820.71 330.262 1816.29 334.865C1811.86 339.467 1809.65 345.485 1809.65 352.92C1809.65 360.355 1811.86 366.373 1816.29 370.976C1820.71 375.578 1826.55 377.879 1833.81 377.879Z" fill="#FFEDEE"/>
<path d="M1742.9 399.386H1716.35V306.454H1784.06V330.616H1742.9V399.386Z" fill="#FFEDEE"/>
<path d="M1653.72 401.643C1644.07 401.643 1635.31 399.519 1627.44 395.271C1619.65 391.022 1613.5 385.181 1608.98 377.746C1604.56 370.312 1602.34 362.036 1602.34 352.92C1602.34 343.715 1604.56 335.44 1608.98 328.094C1613.5 320.659 1619.65 314.818 1627.44 310.569C1635.31 306.321 1644.07 304.197 1653.72 304.197C1663.37 304.197 1672.09 306.321 1679.88 310.569C1687.75 314.818 1693.9 320.659 1698.33 328.094C1702.84 335.44 1705.1 343.715 1705.1 352.92C1705.1 362.036 1702.84 370.312 1698.33 377.746C1693.9 385.181 1687.75 391.022 1679.88 395.271C1672.09 399.519 1663.37 401.643 1653.72 401.643ZM1653.72 377.879C1660.98 377.879 1666.82 375.578 1671.25 370.976C1675.67 366.373 1677.88 360.355 1677.88 352.92C1677.88 345.485 1675.67 339.467 1671.25 334.865C1666.82 330.262 1660.98 327.961 1653.72 327.961C1646.46 327.961 1640.62 330.262 1636.2 334.865C1631.77 339.467 1629.56 345.485 1629.56 352.92C1629.56 360.355 1631.77 366.373 1636.2 370.976C1640.62 375.578 1646.46 377.879 1653.72 377.879Z" fill="#FFEDEE"/>
<path d="M1608.02 399.386H1577.75L1555.58 364.205H1543.36V399.386H1516.81V306.454H1543.36V340.175H1554.78L1576.16 306.454H1605.23L1576.42 350.132L1608.02 399.386Z" fill="#FFEDEE"/>
<path d="M1467.82 331.944C1475.35 331.944 1481.98 333.404 1487.74 336.325C1493.58 339.157 1498.05 343.14 1501.15 348.273C1504.33 353.318 1505.93 359.115 1505.93 365.665C1505.93 372.215 1504.33 378.056 1501.15 383.189C1497.96 388.234 1493.49 392.217 1487.74 395.138C1481.98 397.97 1475.35 399.386 1467.82 399.386H1425.34V306.454H1451.89V331.944H1467.82ZM1465.83 377.481C1469.99 377.481 1473.27 376.419 1475.66 374.294C1478.05 372.17 1479.24 369.294 1479.24 365.665C1479.24 362.036 1478 359.16 1475.52 357.036C1473.13 354.911 1469.9 353.849 1465.83 353.849H1451.1V377.481H1465.83Z" fill="#FFEDEE"/>
<path d="M1377.38 306.454C1384.91 306.454 1391.54 307.87 1397.3 310.702C1403.05 313.534 1407.52 317.517 1410.71 322.65C1413.89 327.784 1415.48 333.714 1415.48 340.44C1415.48 347.167 1413.89 353.097 1410.71 358.23C1407.52 363.275 1403.05 367.214 1397.3 370.046C1391.54 372.878 1384.91 374.294 1377.38 374.294H1361.98V399.386H1335.43V306.454H1377.38ZM1375.26 352.389C1379.33 352.389 1382.6 351.327 1385.08 349.203C1387.56 346.99 1388.8 344.069 1388.8 340.44C1388.8 336.812 1387.56 333.891 1385.08 331.678C1382.6 329.466 1379.33 328.359 1375.26 328.359H1361.19V352.389H1375.26Z" fill="#FFEDEE"/>
<path d="M1272.8 401.643C1263.16 401.643 1254.39 399.519 1246.52 395.271C1238.73 391.022 1232.58 385.181 1228.06 377.746C1223.64 370.312 1221.43 362.036 1221.43 352.92C1221.43 343.715 1223.64 335.44 1228.06 328.094C1232.58 320.659 1238.73 314.818 1246.52 310.569C1254.39 306.321 1263.16 304.197 1272.8 304.197C1282.45 304.197 1291.17 306.321 1298.96 310.569C1306.84 314.818 1312.99 320.659 1317.41 328.094C1321.93 335.44 1324.18 343.715 1324.18 352.92C1324.18 362.036 1321.93 370.312 1317.41 377.746C1312.99 385.181 1306.84 391.022 1298.96 395.271C1291.17 399.519 1282.45 401.643 1272.8 401.643ZM1272.8 377.879C1280.06 377.879 1285.9 375.578 1290.33 370.976C1294.75 366.373 1296.97 360.355 1296.97 352.92C1296.97 345.485 1294.75 339.467 1290.33 334.865C1285.9 330.262 1280.06 327.961 1272.8 327.961C1265.55 327.961 1259.71 330.262 1255.28 334.865C1250.85 339.467 1248.64 345.485 1248.64 352.92C1248.64 360.355 1250.85 366.373 1255.28 370.976C1259.71 375.578 1265.55 377.879 1272.8 377.879Z" fill="#FFEDEE"/>
<path d="M1181.89 399.386H1155.34V306.454H1223.05V330.616H1181.89V399.386Z" fill="#FFEDEE"/>
<path d="M2133 173.692V266.625H2106.45V238.214H2094.23L2076.84 266.625H2048.56L2070.34 233.966C2064.49 231.399 2059.98 227.726 2056.79 222.947C2053.7 218.167 2052.15 212.68 2052.15 206.484C2052.15 200.023 2053.7 194.315 2056.79 189.358C2059.89 184.402 2064.23 180.552 2069.8 177.808C2075.47 175.064 2081.97 173.692 2089.32 173.692H2133ZM2091.44 195.2C2087.55 195.2 2084.45 196.217 2082.15 198.253C2079.94 200.2 2078.83 202.944 2078.83 206.484C2078.83 210.025 2079.94 212.813 2082.15 214.848C2084.45 216.795 2087.55 217.769 2091.44 217.769H2107.38V195.2H2091.44Z" fill="#FFEDEE"/>
<path d="M1982.17 266.625H1947.65V173.692H1973.8V232.24H1976.99L2004.6 173.692H2039.12V266.625H2012.97V208.077H2009.91L1982.17 266.625Z" fill="#FFEDEE"/>
<path d="M1910.15 173.692L1929.4 242.861H1939.49V286.141H1914.14V266.625H1859.84V286.141H1834.35V242.861H1844.57L1863.69 173.692H1910.15ZM1891.17 196.793H1882.14L1870.19 242.861H1902.99L1891.17 196.793Z" fill="#FFEDEE"/>
<path d="M1801.74 214.052L1817.01 173.692H1844.22L1808.64 266.625H1781.96L1793.24 236.754H1775.45L1750.09 173.692H1778.11L1793.37 214.052H1801.74Z" fill="#FFEDEE"/>
<path d="M1721.82 266.625H1695.27V197.855H1667.12V173.692H1750.1V197.855H1721.82V266.625Z" fill="#FFEDEE"/>
<path d="M1618.51 268.883C1609.04 268.883 1600.41 266.758 1592.62 262.51C1584.92 258.262 1578.81 252.42 1574.3 244.986C1569.87 237.551 1567.66 229.276 1567.66 220.159C1567.66 211.043 1569.87 202.768 1574.3 195.333C1578.81 187.898 1584.92 182.057 1592.62 177.809C1600.41 173.56 1609.04 171.436 1618.51 171.436C1627.18 171.436 1634.93 172.985 1641.74 176.083C1648.64 179.18 1654.26 183.517 1658.6 189.093C1663.03 194.581 1665.99 200.82 1667.5 207.813H1639.09C1635.19 199.404 1628.33 195.2 1618.51 195.2C1613.99 195.2 1609.92 196.262 1606.29 198.387C1602.75 200.422 1599.97 203.343 1597.93 207.149C1595.89 210.955 1594.88 215.291 1594.88 220.159C1594.88 225.027 1595.89 229.364 1597.93 233.17C1599.97 236.887 1602.75 239.808 1606.29 241.932C1609.92 244.056 1613.99 245.118 1618.51 245.118C1623.73 245.118 1628.11 243.879 1631.65 241.401C1635.28 238.834 1637.98 235.161 1639.75 230.382H1668.16C1666.48 237.994 1663.38 244.72 1658.87 250.562C1654.44 256.315 1648.78 260.828 1641.87 264.103C1634.97 267.289 1627.18 268.883 1618.51 268.883Z" fill="#FFEDEE"/>
<path d="M1509.42 268.883C1499.77 268.883 1491.01 266.758 1483.13 262.51C1475.35 258.262 1469.19 252.42 1464.68 244.986C1460.26 237.551 1458.04 229.276 1458.04 220.159C1458.04 210.955 1460.26 202.679 1464.68 195.333C1469.19 187.898 1475.35 182.057 1483.13 177.809C1491.01 173.56 1499.77 171.436 1509.42 171.436C1519.07 171.436 1527.79 173.56 1535.58 177.809C1543.45 182.057 1549.6 187.898 1554.03 195.333C1558.54 202.679 1560.8 210.955 1560.8 220.159C1560.8 229.276 1558.54 237.551 1554.03 244.986C1549.6 252.42 1543.45 258.262 1535.58 262.51C1527.79 266.758 1519.07 268.883 1509.42 268.883ZM1509.42 245.118C1516.68 245.118 1522.52 242.817 1526.95 238.215C1531.37 233.612 1533.58 227.594 1533.58 220.159C1533.58 212.725 1531.37 206.706 1526.95 202.104C1522.52 197.501 1516.68 195.2 1509.42 195.2C1502.16 195.2 1496.32 197.501 1491.9 202.104C1487.47 206.706 1485.26 212.725 1485.26 220.159C1485.26 227.594 1487.47 233.612 1491.9 238.215C1496.32 242.817 1502.16 245.118 1509.42 245.118Z" fill="#FFEDEE"/>
<path d="M1420.06 207.812V173.692H1446.61V266.625H1420.06V232.107H1387V266.625H1360.45V173.692H1387V207.812H1420.06Z" fill="#FFEDEE"/>
<path d="M1287.68 266.625H1253.16V173.692H1279.31V232.24H1282.5L1310.11 173.692H1344.63V266.625H1318.48V208.077H1315.43L1287.68 266.625Z" fill="#FFEDEE"/>
<path d="M1246.55 266.625H1216.28L1194.11 231.443H1181.89V266.625H1155.34V173.692H1181.89V207.414H1193.31L1214.68 173.692H1243.76L1214.95 217.371L1246.55 266.625Z" fill="#FFEDEE"/>
<path d="M7.35518 224.127C99.4176 213.979 202.543 202.134 255.612 202.763C294.97 203.229 313.991 216.639 323.121 233.276C332.388 250.163 333.201 273.087 312.463 306.393C286.429 348.203 227.999 420.653 173.28 488.454C116.592 499.979 53.847 514.99 0 533.251C85.2099 452.187 192.577 361.002 275.146 278.293C281.212 273.098 284.164 263.517 280.402 256.661C276.638 249.804 266.938 247.107 259.273 249.425C179.315 266.932 91.8189 298.112 7.35518 325.793V224.127Z" fill="#FFEDEE"/>
<path d="M480.332 391.498C490.34 375.038 509.81 362.873 549.057 364.159C621.707 366.539 787.34 396.538 889.977 410.593V532.968C778.887 497.115 654.292 440.009 543.351 410.489C535.814 407.838 526.03 410.076 521.967 416.758C517.904 423.442 520.415 433.181 526.257 438.652C534.168 447.316 542.4 455.972 550.893 464.621C529.255 463.032 507.475 461.943 485.565 461.366C468.524 429.157 470.839 407.11 480.332 391.498Z" fill="#FFEDEE"/>
<path d="M298.207 404.833C318.289 371.021 339.427 361.273 358.417 361.694C377.693 362.121 397.976 372.88 416.484 407.472C423.922 421.373 432.422 439.716 441.574 460.898C421.807 460.998 402.141 461.515 382.584 462.44C379.718 449.935 376.69 437.668 373.461 425.701C371.99 417.856 365.159 410.512 357.334 410.339C349.506 410.165 342.318 417.207 340.495 424.997C336.253 438.324 332.249 452.042 328.432 466.062C306.457 467.964 284.632 470.383 262.971 473.306C276.059 445.674 288.119 421.816 298.207 404.833Z" fill="#FFEDEE"/>
<path d="M889.977 309.123C797.914 319.271 694.789 331.116 641.72 330.487C602.362 330.021 583.341 316.611 574.211 299.974C564.944 283.087 564.131 260.163 584.869 226.857C610.903 185.047 669.333 112.598 724.052 44.796C780.74 33.2712 843.485 18.26 897.332 -4.48394e-05C812.122 81.0635 704.755 172.248 622.186 254.958C616.12 260.152 613.168 269.734 616.93 276.589C620.693 283.446 630.394 286.144 638.059 283.826C718.017 266.319 805.513 235.139 889.977 207.457V309.123Z" fill="#FFEDEE"/>
<path d="M417 141.752C406.992 158.212 387.522 170.377 348.275 169.092C275.625 166.711 109.992 136.712 7.35518 122.658L7.35519 0.282904C118.445 36.1357 243.039 93.2415 353.981 122.762C361.518 125.412 371.302 123.174 375.365 116.492C379.428 109.809 376.917 100.069 371.075 94.5982C363.164 85.9348 354.932 77.2781 346.439 68.6294C368.077 70.2186 389.857 71.308 411.767 71.8847C428.808 104.093 426.493 126.14 417 141.752Z" fill="#FFEDEE"/>
<path d="M599.125 128.418C579.042 162.229 557.905 171.977 538.915 171.557C519.639 171.129 499.356 160.37 480.848 125.779C473.41 111.877 464.91 93.534 455.758 72.3525C475.525 72.2527 495.191 71.7354 514.748 70.8107C517.614 83.3155 520.642 95.5822 523.871 107.549C525.341 115.394 532.173 122.738 539.998 122.912C547.826 123.085 555.014 116.043 556.837 108.254C561.079 94.9267 565.083 81.2086 568.9 67.1888C590.875 65.2863 612.7 62.8677 634.361 59.9445C621.273 87.5768 609.213 111.434 599.125 128.418Z" fill="#FFEDEE"/>
</svg>
